# xmcd
#
# Track frame offsets:
#   150
#   14170
#   36874
#   54415
#   72395
#   85231
#   105531
#   119142
#   141575
#   161352
#   178645
#   200742
#   220346
#   241798
#   266667
#   284578
#   303085
#
# Disc length: 4425 seconds
#
# Revision: 0
# Processed by: cddbd v1.5.1PL0 Copyright (c) Steve Scherf et al.
# Submitted via: uFREEDB ActiveX Control 1.5
#
DISCID=06114711
DTITLE=Trama - Verão 2004 A
DYEAR=2004
DGENRE=pop
TTITLE0=Paraíso - Claudio Zoli
TTITLE1=Tem espaço na van - Ed. Mota
TTITLE2=O Nego do Cabelo Bom - Max de Castro
TTITLE3=Tudo de Bom - Fernanda Porto
TTITLE4=Que Bom voltar - Ed Mota
TTITLE5=Pode Ser - Pedro Mariano
TTITLE6=Diz - Patricia Marx
TTITLE7=Mais um lamento - Wilson Simoninha
TTITLE8=A Ladeira Leva - Jair de Oliveira
TTITLE9=Vem Ficar Comigo - Silvera
TTITLE10=Coisas Fáceis - Jair Oliveira
TTITLE11=Bairros, Cidades, Estrelas, Constelações - Mzuri S
TTITLE12=A Volta dos que Não Foram - SP Funk
TTITLE13=Sintonia Perfeita - DJ Marcelinho
TTITLE14=Dr. Dre
TTITLE15=Who Am I - Snoop Doggy Dog
TTITLE16=California Love - 2Pac
EXTD=
EXTT0=
EXTT1=
EXTT2=
EXTT3=
EXTT4=
EXTT5=
EXTT6=
EXTT7=
EXTT8=
EXTT9=
EXTT10=
EXTT11=
EXTT12=
EXTT13=
EXTT14=
EXTT15=
EXTT16=
PLAYORDER=
